<svg xmlns="http://www.w3.org/2000/svg" viewBox="0 0 36 36" style="display: inline-block; vertical-align: middle; fill: rgb(0, 0, 0); width: 1.1em; height: 1.1em; padding-bottom: 0.15em;"><path d="M17.6 24.32l-2.46 2.44a4 4 0 01-5.62 0 3.92 3.92 0 010-5.55l4.69-4.65a4 4 0 015.62 0 3.86 3.86 0 011 1.71 2 2 0 00.27-.27l1.29-1.28a5.89 5.89 0 00-1.15-1.62 6 6 0 00-8.44 0l-4.7 4.69a5.91 5.91 0 000 8.39 6 6 0 008.44 0l3.65-3.62h-.5a8 8 0 01-2.09-.24z"></path><path d="M28.61 7.82a6 6 0 00-8.44 0l-3.65 3.62h.49a8 8 0 012.1.28l2.46-2.44a4 4 0 015.62 0 3.92 3.92 0 010 5.55l-4.69 4.65a4 4 0 01-5.62 0 3.86 3.86 0 01-1-1.71 2 2 0 00-.28.23l-1.29 1.28a5.89 5.89 0 001.15 1.62 6 6 0 008.44 0l4.69-4.65a5.92 5.92 0 000-8.39z"></path><path fill="none" d="M0 0H36V36H0z"></path></svg>